<svg width="50" height="19" viewBox="0 0 50 19" fill="none" xmlns="http://www.w3.org/2000/svg">
<g clip-path="url(#clip0_2_259)">
<path fill-rule="evenodd" clip-rule="evenodd" d="M4.63925 13.5956L12.0234 17.8859C10.8401 18.597 9.46737 19 8 19C6.79297 19 5.65694 18.7393 4.63925 18.2415V13.5956ZM4.04733 9.39976V17.9331C1.82261 16.7005 0.284244 14.4012 0.0475711 11.7227L4.04733 9.39976ZM16 10.9403V11.0114C16 13.7136 14.651 16.1077 12.5919 17.5299L8.59215 15.2306L16 10.9403ZM11.9529 4.06667C14.1776 5.29926 15.716 7.59852 15.9527 10.277L11.9529 12.6V4.06667ZM3.40808 4.46963L7.40785 6.76889L0 11.0356V11.0119C0 8.28593 1.34903 5.89185 3.40808 4.46963ZM8.00047 3C9.2075 3 10.3435 3.26074 11.3612 3.75852V8.38074L3.97704 4.09037C5.1604 3.40296 6.5331 3 8.00047 3Z" fill="white"/>
</g>
<path d="M25.6 6.324H24.22V12H23.128V6.324H22.276V5.424H23.128V4.956C23.128 4.22 23.316 3.684 23.692 3.348C24.076 3.004 24.688 2.832 25.528 2.832V3.744C25.048 3.744 24.708 3.84 24.508 4.032C24.316 4.216 24.22 4.524 24.22 4.956V5.424H25.6V6.324ZM30.9532 0.696L27.6652 14.04H26.5852L29.8612 0.696H30.9532ZM37.9323 4.272H33.7203V7.008C33.9043 6.752 34.1763 6.544 34.5363 6.384C34.8963 6.216 35.2843 6.132 35.7003 6.132C36.3643 6.132 36.9043 6.272 37.3203 6.552C37.7363 6.824 38.0323 7.18 38.2083 7.62C38.3923 8.052 38.4843 8.512 38.4843 9C38.4843 9.576 38.3763 10.092 38.1603 10.548C37.9443 11.004 37.6123 11.364 37.1643 11.628C36.7243 11.892 36.1763 12.024 35.5203 12.024C34.6803 12.024 34.0003 11.808 33.4803 11.376C32.9603 10.944 32.6443 10.368 32.5323 9.648H33.6003C33.7043 10.104 33.9243 10.46 34.2603 10.716C34.5963 10.972 35.0203 11.1 35.5323 11.1C36.1643 11.1 36.6403 10.912 36.9603 10.536C37.2803 10.152 37.4403 9.648 37.4403 9.024C37.4403 8.4 37.2803 7.92 36.9603 7.584C36.6403 7.24 36.1683 7.068 35.5443 7.068C35.1203 7.068 34.7483 7.172 34.4283 7.38C34.1163 7.58 33.8883 7.856 33.7443 8.208H32.7123V3.312H37.9323V4.272ZM41.2434 10.488L39.8994 13.716H39.1674L40.0434 10.488H41.2434ZM47.1503 5.388C46.9743 4.5 46.4263 4.056 45.5063 4.056C44.7943 4.056 44.2623 4.332 43.9103 4.884C43.5583 5.428 43.3863 6.328 43.3943 7.584C43.5783 7.168 43.8823 6.844 44.3063 6.612C44.7383 6.372 45.2183 6.252 45.7463 6.252C46.5703 6.252 47.2263 6.508 47.7143 7.02C48.2103 7.532 48.4583 8.24 48.4583 9.144C48.4583 9.688 48.3503 10.176 48.1343 10.608C47.9263 11.04 47.6063 11.384 47.1743 11.64C46.7503 11.896 46.2343 12.024 45.6263 12.024C44.8023 12.024 44.1583 11.84 43.6943 11.472C43.2303 11.104 42.9063 10.596 42.7223 9.948C42.5383 9.3 42.4463 8.5 42.4463 7.548C42.4463 4.612 43.4703 3.144 45.5183 3.144C46.3023 3.144 46.9183 3.356 47.3663 3.78C47.8143 4.204 48.0783 4.74 48.1583 5.388H47.1503ZM45.5183 7.176C45.1743 7.176 44.8503 7.248 44.5463 7.392C44.2423 7.528 43.9943 7.74 43.8023 8.028C43.6183 8.308 43.5263 8.652 43.5263 9.06C43.5263 9.668 43.7023 10.164 44.0543 10.548C44.4063 10.924 44.9103 11.112 45.5663 11.112C46.1263 11.112 46.5703 10.94 46.8983 10.596C47.2343 10.244 47.4023 9.772 47.4023 9.18C47.4023 8.556 47.2423 8.068 46.9223 7.716C46.6023 7.356 46.1343 7.176 45.5183 7.176Z" fill="white"/>
<defs>
<clipPath id="clip0_2_259">
<rect width="16" height="16" fill="white" transform="translate(0 3)"/>
</clipPath>
</defs>
</svg>
