<svg width="65" height="16" viewBox="0 0 65 16" fill="none" xmlns="http://www.w3.org/2000/svg">
<g clip-path="url(#clip0_2_265)">
<path fill-rule="evenodd" clip-rule="evenodd" d="M5 6.44452C4.03804 6.44452 3.25973 5.70036 3.25973 4.78061C3.25973 3.86295 4.03804 3.11879 5 3.11879C5.95977 3.11879 6.73809 3.86295 6.73809 4.78061C6.73809 5.70036 5.95977 6.44452 5 6.44452ZM5 0C2.23874 0 0 2.14051 0 4.78061C0 6.70791 2.6585 12.471 4.09926 15.4497C4.45343 16.1834 5.54438 16.1834 5.90074 15.4497C7.33931 12.471 10 6.70791 10 4.78061C10 2.14051 7.76126 0 5 0Z" fill="white"/>
</g>
<path d="M18.576 9.084C18.024 9.084 17.528 8.988 17.088 8.796C16.656 8.596 16.316 8.324 16.068 7.98C15.82 7.628 15.692 7.224 15.684 6.768H16.848C16.888 7.16 17.048 7.492 17.328 7.764C17.616 8.028 18.032 8.16 18.576 8.16C19.096 8.16 19.504 8.032 19.8 7.776C20.104 7.512 20.256 7.176 20.256 6.768C20.256 6.448 20.168 6.188 19.992 5.988C19.816 5.788 19.596 5.636 19.332 5.532C19.068 5.428 18.712 5.316 18.264 5.196C17.712 5.052 17.268 4.908 16.932 4.764C16.604 4.62 16.32 4.396 16.08 4.092C15.848 3.78 15.732 3.364 15.732 2.844C15.732 2.388 15.848 1.984 16.08 1.632C16.312 1.28 16.636 1.008 17.052 0.816C17.476 0.624 17.96 0.528 18.504 0.528C19.288 0.528 19.928 0.724 20.424 1.116C20.928 1.508 21.212 2.028 21.276 2.676H20.076C20.036 2.356 19.868 2.076 19.572 1.836C19.276 1.588 18.884 1.464 18.396 1.464C17.94 1.464 17.568 1.584 17.28 1.824C16.992 2.056 16.848 2.384 16.848 2.808C16.848 3.112 16.932 3.36 17.1 3.552C17.276 3.744 17.488 3.892 17.736 3.996C17.992 4.092 18.348 4.204 18.804 4.332C19.356 4.484 19.8 4.636 20.136 4.788C20.472 4.932 20.76 5.16 21 5.472C21.24 5.776 21.36 6.192 21.36 6.72C21.36 7.128 21.252 7.512 21.036 7.872C20.82 8.232 20.5 8.524 20.076 8.748C19.652 8.972 19.152 9.084 18.576 9.084ZM31.727 2.424L29.675 9H28.547L26.963 3.78L25.379 9H24.251L22.187 2.424H23.303L24.815 7.944L26.447 2.424H27.563L29.159 7.956L30.647 2.424H31.727ZM38.8107 5.46C38.8107 5.668 38.7987 5.888 38.7747 6.12H33.5187C33.5587 6.768 33.7787 7.276 34.1787 7.644C34.5867 8.004 35.0787 8.184 35.6547 8.184C36.1267 8.184 36.5187 8.076 36.8307 7.86C37.1507 7.636 37.3747 7.34 37.5027 6.972H38.6787C38.5027 7.604 38.1507 8.12 37.6227 8.52C37.0947 8.912 36.4387 9.108 35.6547 9.108C35.0307 9.108 34.4707 8.968 33.9747 8.688C33.4867 8.408 33.1027 8.012 32.8227 7.5C32.5427 6.98 32.4027 6.38 32.4027 5.7C32.4027 5.02 32.5387 4.424 32.8107 3.912C33.0827 3.4 33.4627 3.008 33.9507 2.736C34.4467 2.456 35.0147 2.316 35.6547 2.316C36.2787 2.316 36.8307 2.452 37.3107 2.724C37.7907 2.996 38.1587 3.372 38.4147 3.852C38.6787 4.324 38.8107 4.86 38.8107 5.46ZM37.6827 5.232C37.6827 4.816 37.5907 4.46 37.4067 4.164C37.2227 3.86 36.9707 3.632 36.6507 3.48C36.3387 3.32 35.9907 3.24 35.6067 3.24C35.0547 3.24 34.5827 3.416 34.1907 3.768C33.8067 4.12 33.5867 4.608 33.5307 5.232H37.6827ZM39.8441 5.688C39.8441 5.016 39.9801 4.428 40.2521 3.924C40.5241 3.412 40.8961 3.016 41.3681 2.736C41.8481 2.456 42.3841 2.316 42.9761 2.316C43.4881 2.316 43.9641 2.436 44.4041 2.676C44.8441 2.908 45.1801 3.216 45.4121 3.6V0.12H46.5161V9H45.4121V7.764C45.1961 8.156 44.8761 8.48 44.4521 8.736C44.0281 8.984 43.5321 9.108 42.9641 9.108C42.3801 9.108 41.8481 8.964 41.3681 8.676C40.8961 8.388 40.5241 7.984 40.2521 7.464C39.9801 6.944 39.8441 6.352 39.8441 5.688ZM45.4121 5.7C45.4121 5.204 45.3121 4.772 45.1121 4.404C44.9121 4.036 44.6401 3.756 44.2961 3.564C43.9601 3.364 43.5881 3.264 43.1801 3.264C42.7721 3.264 42.4001 3.36 42.0641 3.552C41.7281 3.744 41.4601 4.024 41.2601 4.392C41.0601 4.76 40.9601 5.192 40.9601 5.688C40.9601 6.192 41.0601 6.632 41.2601 7.008C41.4601 7.376 41.7281 7.66 42.0641 7.86C42.4001 8.052 42.7721 8.148 43.1801 8.148C43.5881 8.148 43.9601 8.052 44.2961 7.86C44.6401 7.66 44.9121 7.376 45.1121 7.008C45.3121 6.632 45.4121 6.196 45.4121 5.7ZM54.3615 5.46C54.3615 5.668 54.3495 5.888 54.3255 6.12H49.0695C49.1095 6.768 49.3295 7.276 49.7295 7.644C50.1375 8.004 50.6295 8.184 51.2055 8.184C51.6775 8.184 52.0695 8.076 52.3815 7.86C52.7015 7.636 52.9255 7.34 53.0535 6.972H54.2295C54.0535 7.604 53.7015 8.12 53.1735 8.52C52.6455 8.912 51.9895 9.108 51.2055 9.108C50.5815 9.108 50.0215 8.968 49.5255 8.688C49.0375 8.408 48.6535 8.012 48.3735 7.5C48.0935 6.98 47.9535 6.38 47.9535 5.7C47.9535 5.02 48.0895 4.424 48.3615 3.912C48.6335 3.4 49.0135 3.008 49.5015 2.736C49.9975 2.456 50.5655 2.316 51.2055 2.316C51.8295 2.316 52.3815 2.452 52.8615 2.724C53.3415 2.996 53.7095 3.372 53.9655 3.852C54.2295 4.324 54.3615 4.86 54.3615 5.46ZM53.2335 5.232C53.2335 4.816 53.1415 4.46 52.9575 4.164C52.7735 3.86 52.5215 3.632 52.2015 3.48C51.8895 3.32 51.5415 3.24 51.1575 3.24C50.6055 3.24 50.1335 3.416 49.7415 3.768C49.3575 4.12 49.1375 4.608 49.0815 5.232H53.2335ZM59.0069 2.304C59.8069 2.304 60.4549 2.548 60.9509 3.036C61.4469 3.516 61.6949 4.212 61.6949 5.124V9H60.6149V5.28C60.6149 4.624 60.4509 4.124 60.1229 3.78C59.7949 3.428 59.3469 3.252 58.7789 3.252C58.2029 3.252 57.7429 3.432 57.3989 3.792C57.0629 4.152 56.8949 4.676 56.8949 5.364V9H55.8029V2.424H56.8949V3.36C57.1109 3.024 57.4029 2.764 57.7709 2.58C58.1469 2.396 58.5589 2.304 59.0069 2.304Z" fill="white"/>
<defs>
<clipPath id="clip0_2_265">
<rect width="10" height="16" fill="white"/>
</clipPath>
</defs>
</svg>
