<svg width="44" height="17" viewBox="0 0 44 17" fill="none" xmlns="http://www.w3.org/2000/svg">
<g clip-path="url(#clip0_2_271)">
<path fill-rule="evenodd" clip-rule="evenodd" d="M8.37292 1C8.43752 1 8.48989 1.05238 8.48989 1.11691V1.23936C8.48989 1.3039 8.43752 1.35628 8.37292 1.35628H8.23866V1.7507C12.3393 1.87669 15.625 5.24071 15.625 9.37297C15.625 13.5856 12.2114 17 8.00042 17C3.78941 17 0.375 13.5856 0.375 9.37297C0.375 5.24102 3.66099 1.87708 7.76134 1.75078V1.35628H7.62708C7.56248 1.35628 7.51019 1.3039 7.51019 1.23936V1.11691C7.51019 1.05238 7.56248 1 7.62708 1H8.37292ZM8.19106 2.75062V3.41987C8.19106 3.5254 8.10554 3.61093 8.00004 3.61093C7.89453 3.61093 7.80894 3.5254 7.80894 3.41987V2.75062C4.30164 2.85038 1.47812 5.67406 1.37877 9.18221H2.04787C2.15338 9.18221 2.23897 9.26775 2.23897 9.37328C2.23897 9.47888 2.15338 9.56441 2.04787 9.56441H1.37877C1.47858 13.0723 4.30187 15.8962 7.80894 15.996V15.3268C7.80894 15.2212 7.89453 15.1356 8.00004 15.1356C8.10554 15.1356 8.19106 15.2212 8.19106 15.3268V15.996C11.6984 15.8966 14.5214 13.0725 14.6212 9.56441H13.9521C13.8466 9.56441 13.7611 9.47888 13.7611 9.37328C13.7611 9.26775 13.8466 9.18221 13.9521 9.18221H14.6212C14.5219 5.67375 11.6987 2.84999 8.19106 2.75062ZM7.99999 9.01702C8.1967 9.01702 8.35619 9.17655 8.35619 9.3733C8.35619 9.3936 8.3535 9.41314 8.35027 9.43245L10.6161 11.4819C10.6742 11.5345 10.7162 11.6026 10.7371 11.6782L10.7677 11.7894C10.7827 11.8435 10.7363 11.8948 10.681 11.8854L10.5672 11.866C10.4899 11.8529 10.418 11.8179 10.3598 11.7653L8.09358 9.7155C8.06359 9.72381 8.0326 9.72958 7.99999 9.72958C7.80336 9.72958 7.64379 9.57005 7.64379 9.3733C7.64379 9.17655 7.80336 9.01702 7.99999 9.01702Z" fill="white"/>
</g>
<path d="M22.744 5.572C22.744 4.196 22.968 3.124 23.416 2.356C23.864 1.58 24.648 1.192 25.768 1.192C26.88 1.192 27.66 1.58 28.108 2.356C28.556 3.124 28.78 4.196 28.78 5.572C28.78 6.972 28.556 8.06 28.108 8.836C27.66 9.612 26.88 10 25.768 10C24.648 10 23.864 9.612 23.416 8.836C22.968 8.06 22.744 6.972 22.744 5.572ZM27.7 5.572C27.7 4.876 27.652 4.288 27.556 3.808C27.468 3.32 27.28 2.928 26.992 2.632C26.712 2.336 26.304 2.188 25.768 2.188C25.224 2.188 24.808 2.336 24.52 2.632C24.24 2.928 24.052 3.32 23.956 3.808C23.868 4.288 23.824 4.876 23.824 5.572C23.824 6.292 23.868 6.896 23.956 7.384C24.052 7.872 24.24 8.264 24.52 8.56C24.808 8.856 25.224 9.004 25.768 9.004C26.304 9.004 26.712 8.856 26.992 8.56C27.28 8.264 27.468 7.872 27.556 7.384C27.652 6.896 27.7 6.292 27.7 5.572ZM31.5872 8.488L30.2432 11.716H29.5112L30.3872 8.488H31.5872ZM34.2421 5.488C33.7941 5.312 33.4501 5.056 33.2101 4.72C32.9701 4.384 32.8501 3.976 32.8501 3.496C32.8501 3.064 32.9581 2.676 33.1741 2.332C33.3901 1.98 33.7101 1.704 34.1341 1.504C34.5661 1.296 35.0861 1.192 35.6941 1.192C36.3021 1.192 36.8181 1.296 37.2421 1.504C37.6741 1.704 37.9981 1.98 38.2141 2.332C38.4381 2.676 38.5501 3.064 38.5501 3.496C38.5501 3.96 38.4261 4.368 38.1781 4.72C37.9301 5.064 37.5901 5.32 37.1581 5.488C37.6541 5.64 38.0461 5.908 38.3341 6.292C38.6301 6.668 38.7781 7.124 38.7781 7.66C38.7781 8.18 38.6501 8.636 38.3941 9.028C38.1381 9.412 37.7741 9.712 37.3021 9.928C36.8381 10.136 36.3021 10.24 35.6941 10.24C35.0861 10.24 34.5501 10.136 34.0861 9.928C33.6301 9.712 33.2741 9.412 33.0181 9.028C32.7621 8.636 32.6341 8.18 32.6341 7.66C32.6341 7.124 32.7781 6.664 33.0661 6.28C33.3541 5.896 33.7461 5.632 34.2421 5.488ZM37.4941 3.628C37.4941 3.14 37.3341 2.764 37.0141 2.5C36.6941 2.236 36.2541 2.104 35.6941 2.104C35.1421 2.104 34.7061 2.236 34.3861 2.5C34.0661 2.764 33.9061 3.144 33.9061 3.64C33.9061 4.088 34.0701 4.448 34.3981 4.72C34.7341 4.992 35.1661 5.128 35.6941 5.128C36.2301 5.128 36.6621 4.992 36.9901 4.72C37.3261 4.44 37.4941 4.076 37.4941 3.628ZM35.6941 5.968C35.1021 5.968 34.6181 6.108 34.2421 6.388C33.8661 6.66 33.6781 7.072 33.6781 7.624C33.6781 8.136 33.8581 8.548 34.2181 8.86C34.5861 9.172 35.0781 9.328 35.6941 9.328C36.3101 9.328 36.7981 9.172 37.1581 8.86C37.5181 8.548 37.6981 8.136 37.6981 7.624C37.6981 7.088 37.5141 6.68 37.1461 6.4C36.7781 6.112 36.2941 5.968 35.6941 5.968ZM40.9604 0.447999L40.8164 2.836H40.0604L39.9044 0.447999H40.9604ZM42.8705 0.447999L42.7265 2.836H41.9705L41.8145 0.447999H42.8705Z" fill="white"/>
<defs>
<clipPath id="clip0_2_271">
<rect width="16" height="16" fill="white" transform="translate(0 1)"/>
</clipPath>
</defs>
</svg>
