<svg width="49" height="19" viewBox="0 0 49 19" fill="none" xmlns="http://www.w3.org/2000/svg">
<g clip-path="url(#clip0_2_293)">
<path fill-rule="evenodd" clip-rule="evenodd" d="M4.63925 13.5956L12.0234 17.8859C10.8401 18.597 9.46737 19 8 19C6.79297 19 5.65694 18.7393 4.63925 18.2415V13.5956ZM4.04733 9.39976V17.9331C1.82261 16.7005 0.284244 14.4012 0.0475711 11.7227L4.04733 9.39976ZM16 10.9403V11.0114C16 13.7136 14.651 16.1077 12.5919 17.5299L8.59215 15.2306L16 10.9403ZM11.9529 4.06667C14.1776 5.29926 15.716 7.59852 15.9527 10.277L11.9529 12.6V4.06667ZM3.40808 4.46963L7.40785 6.76889L0 11.0356V11.0119C0 8.28593 1.34903 5.89185 3.40808 4.46963ZM8.00047 3C9.2075 3 10.3435 3.26074 11.3612 3.75852V8.38074L3.97704 4.09037C5.1604 3.40296 6.5331 3 8.00047 3Z" fill="white"/>
</g>
<path d="M25.6 6.324H24.22V12H23.128V6.324H22.276V5.424H23.128V4.956C23.128 4.22 23.316 3.684 23.692 3.348C24.076 3.004 24.688 2.832 25.528 2.832V3.744C25.048 3.744 24.708 3.84 24.508 4.032C24.316 4.216 24.22 4.524 24.22 4.956V5.424H25.6V6.324ZM30.9532 0.696L27.6652 14.04H26.5852L29.8612 0.696H30.9532ZM32.3763 5.508C32.4323 4.772 32.7163 4.196 33.2283 3.78C33.7403 3.364 34.4043 3.156 35.2203 3.156C35.7643 3.156 36.2323 3.256 36.6243 3.456C37.0243 3.648 37.3243 3.912 37.5243 4.248C37.7323 4.584 37.8363 4.964 37.8363 5.388C37.8363 5.884 37.6923 6.312 37.4043 6.672C37.1243 7.032 36.7563 7.264 36.3003 7.368V7.428C36.8203 7.556 37.2323 7.808 37.5363 8.184C37.8403 8.56 37.9922 9.052 37.9922 9.66C37.9922 10.116 37.8883 10.528 37.6803 10.896C37.4723 11.256 37.1603 11.54 36.7443 11.748C36.3283 11.956 35.8283 12.06 35.2443 12.06C34.3963 12.06 33.7003 11.84 33.1562 11.4C32.6123 10.952 32.3083 10.32 32.2443 9.504H33.3003C33.3563 9.984 33.5523 10.376 33.8883 10.68C34.2243 10.984 34.6723 11.136 35.2323 11.136C35.7923 11.136 36.2163 10.992 36.5043 10.704C36.8003 10.408 36.9483 10.028 36.9483 9.564C36.9483 8.964 36.7483 8.532 36.3483 8.268C35.9483 8.004 35.3443 7.872 34.5363 7.872H34.2603V6.96H34.5483C35.2843 6.952 35.8403 6.832 36.2163 6.6C36.5923 6.36 36.7803 5.992 36.7803 5.496C36.7803 5.072 36.6403 4.732 36.3603 4.476C36.0883 4.22 35.6963 4.092 35.1842 4.092C34.6883 4.092 34.2883 4.22 33.9843 4.476C33.6803 4.732 33.5003 5.076 33.4443 5.508H32.3763ZM40.7747 10.488L39.4307 13.716H38.6987L39.5747 10.488H40.7747ZM47.3776 4.272H43.1656V7.008C43.3496 6.752 43.6216 6.544 43.9816 6.384C44.3416 6.216 44.7296 6.132 45.1456 6.132C45.8096 6.132 46.3496 6.272 46.7656 6.552C47.1816 6.824 47.4776 7.18 47.6536 7.62C47.8376 8.052 47.9296 8.512 47.9296 9C47.9296 9.576 47.8216 10.092 47.6056 10.548C47.3896 11.004 47.0576 11.364 46.6096 11.628C46.1696 11.892 45.6216 12.024 44.9656 12.024C44.1256 12.024 43.4456 11.808 42.9256 11.376C42.4056 10.944 42.0896 10.368 41.9776 9.648H43.0456C43.1496 10.104 43.3696 10.46 43.7056 10.716C44.0416 10.972 44.4656 11.1 44.9776 11.1C45.6096 11.1 46.0856 10.912 46.4056 10.536C46.7256 10.152 46.8856 9.648 46.8856 9.024C46.8856 8.4 46.7256 7.92 46.4056 7.584C46.0856 7.24 45.6136 7.068 44.9896 7.068C44.5656 7.068 44.1936 7.172 43.8736 7.38C43.5616 7.58 43.3336 7.856 43.1896 8.208H42.1576V3.312H47.3776V4.272Z" fill="white"/>
<defs>
<clipPath id="clip0_2_293">
<rect width="16" height="16" fill="white" transform="translate(0 3)"/>
</clipPath>
</defs>
</svg>
