<svg width="85" height="17" viewBox="0 0 85 17" fill="none" xmlns="http://www.w3.org/2000/svg">
<g clip-path="url(#clip0_2_305)">
<path fill-rule="evenodd" clip-rule="evenodd" d="M5 7.44452C4.03804 7.44452 3.25973 6.70036 3.25973 5.78061C3.25973 4.86295 4.03804 4.11879 5 4.11879C5.95977 4.11879 6.73809 4.86295 6.73809 5.78061C6.73809 6.70036 5.95977 7.44452 5 7.44452ZM5 1C2.23874 1 0 3.14051 0 5.78061C0 7.70791 2.6585 13.471 4.09926 16.4497C4.45343 17.1834 5.54438 17.1834 5.90074 16.4497C7.33931 13.471 10 7.70791 10 5.78061C10 3.14051 7.76126 1 5 1Z" fill="white"/>
</g>
<path d="M15.516 5.812C15.516 4.996 15.7 4.264 16.068 3.616C16.436 2.96 16.936 2.448 17.568 2.08C18.208 1.712 18.916 1.528 19.692 1.528C20.604 1.528 21.4 1.748 22.08 2.188C22.76 2.628 23.256 3.252 23.568 4.06H22.26C22.028 3.556 21.692 3.168 21.252 2.896C20.82 2.624 20.3 2.488 19.692 2.488C19.108 2.488 18.584 2.624 18.12 2.896C17.656 3.168 17.292 3.556 17.028 4.06C16.764 4.556 16.632 5.14 16.632 5.812C16.632 6.476 16.764 7.06 17.028 7.564C17.292 8.06 17.656 8.444 18.12 8.716C18.584 8.988 19.108 9.124 19.692 9.124C20.3 9.124 20.82 8.992 21.252 8.728C21.692 8.456 22.028 8.068 22.26 7.564H23.568C23.256 8.364 22.76 8.984 22.08 9.424C21.4 9.856 20.604 10.072 19.692 10.072C18.916 10.072 18.208 9.892 17.568 9.532C16.936 9.164 16.436 8.656 16.068 8.008C15.7 7.36 15.516 6.628 15.516 5.812ZM28.0615 10.108C27.4455 10.108 26.8855 9.968 26.3815 9.688C25.8855 9.408 25.4935 9.012 25.2055 8.5C24.9255 7.98 24.7855 7.38 24.7855 6.7C24.7855 6.028 24.9295 5.436 25.2175 4.924C25.5135 4.404 25.9135 4.008 26.4175 3.736C26.9215 3.456 27.4855 3.316 28.1095 3.316C28.7335 3.316 29.2975 3.456 29.8015 3.736C30.3055 4.008 30.7015 4.4 30.9895 4.912C31.2855 5.424 31.4335 6.02 31.4335 6.7C31.4335 7.38 31.2815 7.98 30.9775 8.5C30.6815 9.012 30.2775 9.408 29.7655 9.688C29.2535 9.968 28.6855 10.108 28.0615 10.108ZM28.0615 9.148C28.4535 9.148 28.8215 9.056 29.1655 8.872C29.5095 8.688 29.7855 8.412 29.9935 8.044C30.2095 7.676 30.3175 7.228 30.3175 6.7C30.3175 6.172 30.2135 5.724 30.0055 5.356C29.7975 4.988 29.5255 4.716 29.1895 4.54C28.8535 4.356 28.4895 4.264 28.0975 4.264C27.6975 4.264 27.3295 4.356 26.9935 4.54C26.6655 4.716 26.4015 4.988 26.2015 5.356C26.0015 5.724 25.9015 6.172 25.9015 6.7C25.9015 7.236 25.9975 7.688 26.1895 8.056C26.3895 8.424 26.6535 8.7 26.9815 8.884C27.3095 9.06 27.6695 9.148 28.0615 9.148ZM35.1973 10.108C34.6933 10.108 34.2413 10.024 33.8413 9.856C33.4413 9.68 33.1253 9.44 32.8933 9.136C32.6613 8.824 32.5333 8.468 32.5093 8.068H33.6373C33.6693 8.396 33.8213 8.664 34.0933 8.872C34.3733 9.08 34.7373 9.184 35.1853 9.184C35.6013 9.184 35.9293 9.092 36.1693 8.908C36.4093 8.724 36.5293 8.492 36.5293 8.212C36.5293 7.924 36.4013 7.712 36.1453 7.576C35.8893 7.432 35.4933 7.292 34.9573 7.156C34.4693 7.028 34.0693 6.9 33.7573 6.772C33.4533 6.636 33.1893 6.44 32.9653 6.184C32.7493 5.92 32.6413 5.576 32.6413 5.152C32.6413 4.816 32.7413 4.508 32.9413 4.228C33.1413 3.948 33.4253 3.728 33.7933 3.568C34.1613 3.4 34.5813 3.316 35.0533 3.316C35.7813 3.316 36.3693 3.5 36.8173 3.868C37.2653 4.236 37.5053 4.74 37.5373 5.38H36.4453C36.4213 5.036 36.2813 4.76 36.0253 4.552C35.7773 4.344 35.4413 4.24 35.0173 4.24C34.6253 4.24 34.3133 4.324 34.0813 4.492C33.8493 4.66 33.7333 4.88 33.7333 5.152C33.7333 5.368 33.8013 5.548 33.9373 5.692C34.0813 5.828 34.2573 5.94 34.4653 6.028C34.6813 6.108 34.9773 6.2 35.3533 6.304C35.8253 6.432 36.2093 6.56 36.5053 6.688C36.8013 6.808 37.0533 6.992 37.2613 7.24C37.4773 7.488 37.5893 7.812 37.5973 8.212C37.5973 8.572 37.4973 8.896 37.2973 9.184C37.0973 9.472 36.8133 9.7 36.4453 9.868C36.0853 10.028 35.6693 10.108 35.1973 10.108ZM40.4708 4.324V8.2C40.4708 8.52 40.5388 8.748 40.6748 8.884C40.8108 9.012 41.0468 9.076 41.3828 9.076H42.1868V10H41.2028C40.5948 10 40.1388 9.86 39.8348 9.58C39.5308 9.3 39.3788 8.84 39.3788 8.2V4.324H38.5268V3.424H39.3788V1.768H40.4708V3.424H42.1868V4.324H40.4708ZM43.1019 6.688C43.1019 6.016 43.2379 5.428 43.5099 4.924C43.7819 4.412 44.1539 4.016 44.6259 3.736C45.1059 3.456 45.6379 3.316 46.2219 3.316C46.7979 3.316 47.2979 3.44 47.7219 3.688C48.1459 3.936 48.4619 4.248 48.6699 4.624V3.424H49.7739V10H48.6699V8.776C48.4539 9.16 48.1299 9.48 47.6979 9.736C47.2739 9.984 46.7779 10.108 46.2099 10.108C45.6259 10.108 45.0979 9.964 44.6259 9.676C44.1539 9.388 43.7819 8.984 43.5099 8.464C43.2379 7.944 43.1019 7.352 43.1019 6.688ZM48.6699 6.7C48.6699 6.204 48.5699 5.772 48.3699 5.404C48.1699 5.036 47.8979 4.756 47.5539 4.564C47.2179 4.364 46.8459 4.264 46.4379 4.264C46.0299 4.264 45.6579 4.36 45.3219 4.552C44.9859 4.744 44.7179 5.024 44.5179 5.392C44.3179 5.76 44.2179 6.192 44.2179 6.688C44.2179 7.192 44.3179 7.632 44.5179 8.008C44.7179 8.376 44.9859 8.66 45.3219 8.86C45.6579 9.052 46.0299 9.148 46.4379 9.148C46.8459 9.148 47.2179 9.052 47.5539 8.86C47.8979 8.66 48.1699 8.376 48.3699 8.008C48.5699 7.632 48.6699 7.196 48.6699 6.7ZM59.2225 10L57.2305 6.58H55.9105V10H54.8185V1.636H57.5185C58.1505 1.636 58.6825 1.744 59.1145 1.96C59.5545 2.176 59.8825 2.468 60.0985 2.836C60.3145 3.204 60.4225 3.624 60.4225 4.096C60.4225 4.672 60.2545 5.18 59.9185 5.62C59.5905 6.06 59.0945 6.352 58.4305 6.496L60.5305 10H59.2225ZM55.9105 5.704H57.5185C58.1105 5.704 58.5545 5.56 58.8505 5.272C59.1465 4.976 59.2945 4.584 59.2945 4.096C59.2945 3.6 59.1465 3.216 58.8505 2.944C58.5625 2.672 58.1185 2.536 57.5185 2.536H55.9105V5.704ZM62.6833 2.356C62.4753 2.356 62.2993 2.284 62.1553 2.14C62.0113 1.996 61.9393 1.82 61.9393 1.612C61.9393 1.404 62.0113 1.228 62.1553 1.084C62.2993 0.94 62.4753 0.868 62.6833 0.868C62.8833 0.868 63.0513 0.94 63.1873 1.084C63.3313 1.228 63.4033 1.404 63.4033 1.612C63.4033 1.82 63.3313 1.996 63.1873 2.14C63.0513 2.284 62.8833 2.356 62.6833 2.356ZM63.2113 3.424V10H62.1193V3.424H63.2113ZM64.6644 6.7C64.6644 6.02 64.8004 5.428 65.0724 4.924C65.3444 4.412 65.7204 4.016 66.2004 3.736C66.6884 3.456 67.2444 3.316 67.8684 3.316C68.6764 3.316 69.3404 3.512 69.8604 3.904C70.3884 4.296 70.7364 4.84 70.9044 5.536H69.7284C69.6164 5.136 69.3964 4.82 69.0684 4.588C68.7484 4.356 68.3484 4.24 67.8684 4.24C67.2444 4.24 66.7404 4.456 66.3564 4.888C65.9724 5.312 65.7804 5.916 65.7804 6.7C65.7804 7.492 65.9724 8.104 66.3564 8.536C66.7404 8.968 67.2444 9.184 67.8684 9.184C68.3484 9.184 68.7484 9.072 69.0684 8.848C69.3884 8.624 69.6084 8.304 69.7284 7.888H70.9044C70.7284 8.56 70.3764 9.1 69.8484 9.508C69.3204 9.908 68.6604 10.108 67.8684 10.108C67.2444 10.108 66.6884 9.968 66.2004 9.688C65.7204 9.408 65.3444 9.012 65.0724 8.5C64.8004 7.988 64.6644 7.388 64.6644 6.7ZM71.9535 6.688C71.9535 6.016 72.0895 5.428 72.3615 4.924C72.6335 4.412 73.0055 4.016 73.4775 3.736C73.9575 3.456 74.4895 3.316 75.0735 3.316C75.6495 3.316 76.1495 3.44 76.5735 3.688C76.9975 3.936 77.3135 4.248 77.5215 4.624V3.424H78.6255V10H77.5215V8.776C77.3055 9.16 76.9815 9.48 76.5495 9.736C76.1255 9.984 75.6295 10.108 75.0615 10.108C74.4775 10.108 73.9495 9.964 73.4775 9.676C73.0055 9.388 72.6335 8.984 72.3615 8.464C72.0895 7.944 71.9535 7.352 71.9535 6.688ZM77.5215 6.7C77.5215 6.204 77.4215 5.772 77.2215 5.404C77.0215 5.036 76.7495 4.756 76.4055 4.564C76.0695 4.364 75.6975 4.264 75.2895 4.264C74.8815 4.264 74.5095 4.36 74.1735 4.552C73.8375 4.744 73.5695 5.024 73.3695 5.392C73.1695 5.76 73.0695 6.192 73.0695 6.688C73.0695 7.192 73.1695 7.632 73.3695 8.008C73.5695 8.376 73.8375 8.66 74.1735 8.86C74.5095 9.052 74.8815 9.148 75.2895 9.148C75.6975 9.148 76.0695 9.052 76.4055 8.86C76.7495 8.66 77.0215 8.376 77.2215 8.008C77.4215 7.632 77.5215 7.196 77.5215 6.7Z" fill="white"/>
<defs>
<clipPath id="clip0_2_305">
<rect width="10" height="16" fill="white" transform="translate(0 1)"/>
</clipPath>
</defs>
</svg>
