<svg width="63" height="19" viewBox="0 0 63 19" fill="none" xmlns="http://www.w3.org/2000/svg">
<g clip-path="url(#clip0_2_287)">
<path fill-rule="evenodd" clip-rule="evenodd" d="M8.37292 3C8.43752 3 8.48989 3.05238 8.48989 3.11691V3.23936C8.48989 3.3039 8.43752 3.35628 8.37292 3.35628H8.23866V3.7507C12.3393 3.87669 15.625 7.24071 15.625 11.373C15.625 15.5856 12.2114 19 8.00042 19C3.78941 19 0.375 15.5856 0.375 11.373C0.375 7.24102 3.66099 3.87708 7.76134 3.75078V3.35628H7.62708C7.56248 3.35628 7.51019 3.3039 7.51019 3.23936V3.11691C7.51019 3.05238 7.56248 3 7.62708 3H8.37292ZM8.19106 4.75062V5.41987C8.19106 5.5254 8.10554 5.61093 8.00004 5.61093C7.89453 5.61093 7.80894 5.5254 7.80894 5.41987V4.75062C4.30164 4.85038 1.47812 7.67406 1.37877 11.1822H2.04787C2.15338 11.1822 2.23897 11.2677 2.23897 11.3733C2.23897 11.4789 2.15338 11.5644 2.04787 11.5644H1.37877C1.47858 15.0723 4.30187 17.8962 7.80894 17.996V17.3268C7.80894 17.2212 7.89453 17.1356 8.00004 17.1356C8.10554 17.1356 8.19106 17.2212 8.19106 17.3268V17.996C11.6984 17.8966 14.5214 15.0725 14.6212 11.5644H13.9521C13.8466 11.5644 13.7611 11.4789 13.7611 11.3733C13.7611 11.2677 13.8466 11.1822 13.9521 11.1822H14.6212C14.5219 7.67375 11.6987 4.84999 8.19106 4.75062ZM7.99999 11.017C8.1967 11.017 8.35619 11.1765 8.35619 11.3733C8.35619 11.3936 8.3535 11.4131 8.35027 11.4324L10.6161 13.4819C10.6742 13.5345 10.7162 13.6026 10.7371 13.6782L10.7677 13.7894C10.7827 13.8435 10.7363 13.8948 10.681 13.8854L10.5672 13.866C10.4899 13.8529 10.418 13.8179 10.3598 13.7653L8.09358 11.7155C8.06359 11.7238 8.0326 11.7296 7.99999 11.7296C7.80336 11.7296 7.64379 11.5701 7.64379 11.3733C7.64379 11.1765 7.80336 11.017 7.99999 11.017Z" fill="white"/>
</g>
<path d="M22.456 4.32V3.324H24.712V12H23.608V4.32H22.456ZM30.8478 0.696L27.5598 14.04H26.4798L29.7558 0.696H30.8478ZM32.0308 10.068V9.24L36.2428 3.408H37.5508V9.12H38.7508V10.068H37.5508V12H36.4708V10.068H32.0308ZM36.5188 4.548L33.2908 9.12H36.5188V4.548ZM39.8417 7.572C39.8417 6.196 40.0657 5.124 40.5137 4.356C40.9617 3.58 41.7457 3.192 42.8657 3.192C43.9777 3.192 44.7577 3.58 45.2057 4.356C45.6537 5.124 45.8777 6.196 45.8777 7.572C45.8777 8.972 45.6537 10.06 45.2057 10.836C44.7577 11.612 43.9777 12 42.8657 12C41.7457 12 40.9617 11.612 40.5137 10.836C40.0657 10.06 39.8417 8.972 39.8417 7.572ZM44.7977 7.572C44.7977 6.876 44.7497 6.288 44.6537 5.808C44.5657 5.32 44.3777 4.928 44.0897 4.632C43.8097 4.336 43.4017 4.188 42.8657 4.188C42.3217 4.188 41.9057 4.336 41.6177 4.632C41.3377 4.928 41.1497 5.32 41.0537 5.808C40.9657 6.288 40.9217 6.876 40.9217 7.572C40.9217 8.292 40.9657 8.896 41.0537 9.384C41.1497 9.872 41.3377 10.264 41.6177 10.56C41.9057 10.856 42.3217 11.004 42.8657 11.004C43.4017 11.004 43.8097 10.856 44.0897 10.56C44.3777 10.264 44.5657 9.872 44.6537 9.384C44.7497 8.896 44.7977 8.292 44.7977 7.572ZM47.3768 7.572C47.3768 6.196 47.6008 5.124 48.0488 4.356C48.4968 3.58 49.2808 3.192 50.4008 3.192C51.5128 3.192 52.2928 3.58 52.7408 4.356C53.1888 5.124 53.4128 6.196 53.4128 7.572C53.4128 8.972 53.1888 10.06 52.7408 10.836C52.2928 11.612 51.5128 12 50.4008 12C49.2808 12 48.4968 11.612 48.0488 10.836C47.6008 10.06 47.3768 8.972 47.3768 7.572ZM52.3328 7.572C52.3328 6.876 52.2848 6.288 52.1888 5.808C52.1008 5.32 51.9128 4.928 51.6248 4.632C51.3448 4.336 50.9368 4.188 50.4008 4.188C49.8568 4.188 49.4408 4.336 49.1528 4.632C48.8728 4.928 48.6848 5.32 48.5888 5.808C48.5008 6.288 48.4568 6.876 48.4568 7.572C48.4568 8.292 48.5008 8.896 48.5888 9.384C48.6848 9.872 48.8728 10.264 49.1528 10.56C49.4408 10.856 49.8568 11.004 50.4008 11.004C50.9368 11.004 51.3448 10.856 51.6248 10.56C51.9128 10.264 52.1008 9.872 52.1888 9.384C52.2848 8.896 52.3328 8.292 52.3328 7.572ZM57.42 12.108C56.916 12.108 56.464 12.024 56.064 11.856C55.664 11.68 55.348 11.44 55.116 11.136C54.884 10.824 54.756 10.468 54.732 10.068H55.86C55.892 10.396 56.044 10.664 56.316 10.872C56.596 11.08 56.96 11.184 57.408 11.184C57.824 11.184 58.152 11.092 58.392 10.908C58.632 10.724 58.752 10.492 58.752 10.212C58.752 9.924 58.624 9.712 58.368 9.576C58.112 9.432 57.716 9.292 57.18 9.156C56.692 9.028 56.292 8.9 55.98 8.772C55.676 8.636 55.412 8.44 55.188 8.184C54.972 7.92 54.864 7.576 54.864 7.152C54.864 6.816 54.964 6.508 55.164 6.228C55.364 5.948 55.648 5.728 56.016 5.568C56.384 5.4 56.804 5.316 57.276 5.316C58.004 5.316 58.592 5.5 59.04 5.868C59.488 6.236 59.728 6.74 59.76 7.38H58.668C58.644 7.036 58.504 6.76 58.248 6.552C58 6.344 57.664 6.24 57.24 6.24C56.848 6.24 56.536 6.324 56.304 6.492C56.072 6.66 55.956 6.88 55.956 7.152C55.956 7.368 56.024 7.548 56.16 7.692C56.304 7.828 56.48 7.94 56.688 8.028C56.904 8.108 57.2 8.2 57.576 8.304C58.048 8.432 58.432 8.56 58.728 8.688C59.024 8.808 59.276 8.992 59.484 9.24C59.7 9.488 59.812 9.812 59.82 10.212C59.82 10.572 59.72 10.896 59.52 11.184C59.32 11.472 59.036 11.7 58.668 11.868C58.308 12.028 57.892 12.108 57.42 12.108Z" fill="white"/>
<defs>
<clipPath id="clip0_2_287">
<rect width="16" height="16" fill="white" transform="translate(0 3)"/>
</clipPath>
</defs>
</svg>
