<svg width="62" height="16" viewBox="0 0 62 16" fill="none" xmlns="http://www.w3.org/2000/svg">
<g clip-path="url(#clip0_2_352)">
<path fill-rule="evenodd" clip-rule="evenodd" d="M28.8992 0C30.6117 0 32 1.39911 32 3.125V12.875C32 14.6009 30.6117 16 28.8992 16H3.10078C1.38826 16 0 14.6009 0 12.875V3.125C0 1.39911 1.38826 0 3.10078 0H28.8992ZM12.71 2.911C12.0313 2.911 11.428 3.02737 10.9001 3.26012C10.3722 3.49287 9.96217 3.82775 9.66995 4.26475C9.37774 4.70175 9.23163 5.21475 9.23163 5.80375C9.23163 6.43075 9.37538 6.93188 9.66288 7.30713C9.95039 7.68237 10.2944 7.96263 10.6951 8.14787C11.0957 8.33313 11.6165 8.52075 12.2575 8.71075C12.7288 8.84375 13.0988 8.96488 13.3674 9.07413C13.6361 9.18338 13.86 9.333 14.0391 9.523C14.2182 9.713 14.3077 9.95525 14.3077 10.2498C14.3077 10.6108 14.1758 10.9029 13.9118 11.1261C13.6479 11.3494 13.285 11.461 12.8231 11.461C12.3706 11.461 12.0148 11.3422 11.7555 11.1047C11.5067 10.8767 11.3642 10.57 11.3282 10.1844L11.3243 10.1357H9.20335L9.20495 10.2006C9.22476 10.7813 9.38918 11.2869 9.69823 11.7175C10.0187 12.164 10.4547 12.506 11.0061 12.7435C11.5576 12.981 12.1774 13.0997 12.8655 13.0997C13.5913 13.0997 14.2182 12.9644 14.746 12.6936C15.2739 12.4229 15.6745 12.0595 15.9479 11.6035C16.2213 11.1475 16.358 10.6535 16.358 10.1215C16.358 9.504 16.2118 9.00525 15.9196 8.62525C15.6274 8.24525 15.2786 7.96025 14.8733 7.77025C14.468 7.58025 13.9448 7.39025 13.3038 7.20025C12.8325 7.05775 12.4672 6.93188 12.208 6.82263C11.9488 6.71338 11.732 6.57087 11.5576 6.39512C11.3832 6.21938 11.296 5.9985 11.296 5.7325C11.296 5.3525 11.4115 5.06275 11.6424 4.86325C11.8734 4.66375 12.1821 4.564 12.5686 4.564C13.0116 4.564 13.3674 4.67563 13.6361 4.89888C13.8936 5.11282 14.0363 5.3813 14.0643 5.70431L14.0673 5.74675H16.2448L16.2399 5.68617C16.1627 4.82222 15.8133 4.14654 15.1914 3.65913C14.5552 3.16038 13.728 2.911 12.71 2.911ZM23.3942 2.911C22.4704 2.911 21.6221 3.1295 20.8491 3.5665C20.0762 4.0035 19.4634 4.60913 19.011 5.38338C18.5585 6.15763 18.3323 7.02925 18.3323 7.99825C18.3323 8.97675 18.5585 9.85312 19.011 10.6274C19.4634 11.4016 20.0762 12.0072 20.8491 12.4443C21.6221 12.8813 22.4704 13.0997 23.3942 13.0997C24.318 13.0997 25.1664 12.8813 25.9393 12.4443C26.7123 12.0072 27.3227 11.4016 27.7704 10.6274C28.2182 9.85312 28.442 8.97675 28.442 7.99825C28.442 7.02925 28.2182 6.15763 27.7704 5.38338C27.3227 4.60913 26.7147 4.0035 25.9464 3.5665C25.1782 3.1295 24.3274 2.911 23.3942 2.911ZM6.76242 3.0535H4.78288V13H6.76242V3.0535ZM23.3942 4.7065C23.9881 4.7065 24.5113 4.8395 24.9637 5.1055C25.4162 5.3715 25.7697 5.75387 26.0242 6.25262C26.2787 6.75138 26.406 7.33325 26.406 7.99825C26.406 8.66325 26.2787 9.2475 26.0242 9.751C25.7697 10.2545 25.4162 10.6416 24.9637 10.9124C24.5113 11.1831 23.9881 11.3185 23.3942 11.3185C22.8004 11.3185 22.2749 11.1831 21.8177 10.9124C21.3605 10.6416 21.0047 10.2545 20.7501 9.751C20.4956 9.2475 20.3684 8.66325 20.3684 7.99825C20.3684 7.33325 20.4956 6.75138 20.7501 6.25262C21.0047 5.75387 21.3605 5.3715 21.8177 5.1055C22.2749 4.8395 22.8004 4.7065 23.3942 4.7065Z" fill="white"/>
</g>
<path d="M41.328 4.488C40.88 4.312 40.536 4.056 40.296 3.72C40.056 3.384 39.936 2.976 39.936 2.496C39.936 2.064 40.044 1.676 40.26 1.332C40.476 0.98 40.796 0.704 41.22 0.504C41.652 0.296 42.172 0.192 42.78 0.192C43.388 0.192 43.904 0.296 44.328 0.504C44.76 0.704 45.084 0.98 45.3 1.332C45.524 1.676 45.636 2.064 45.636 2.496C45.636 2.96 45.512 3.368 45.264 3.72C45.016 4.064 44.676 4.32 44.244 4.488C44.74 4.64 45.132 4.908 45.42 5.292C45.716 5.668 45.864 6.124 45.864 6.66C45.864 7.18 45.736 7.636 45.48 8.028C45.224 8.412 44.86 8.712 44.388 8.928C43.924 9.136 43.388 9.24 42.78 9.24C42.172 9.24 41.636 9.136 41.172 8.928C40.716 8.712 40.36 8.412 40.104 8.028C39.848 7.636 39.72 7.18 39.72 6.66C39.72 6.124 39.864 5.664 40.152 5.28C40.44 4.896 40.832 4.632 41.328 4.488ZM44.58 2.628C44.58 2.14 44.42 1.764 44.1 1.5C43.78 1.236 43.34 1.104 42.78 1.104C42.228 1.104 41.792 1.236 41.472 1.5C41.152 1.764 40.992 2.144 40.992 2.64C40.992 3.088 41.156 3.448 41.484 3.72C41.82 3.992 42.252 4.128 42.78 4.128C43.316 4.128 43.748 3.992 44.076 3.72C44.412 3.44 44.58 3.076 44.58 2.628ZM42.78 4.968C42.188 4.968 41.704 5.108 41.328 5.388C40.952 5.66 40.764 6.072 40.764 6.624C40.764 7.136 40.944 7.548 41.304 7.86C41.672 8.172 42.164 8.328 42.78 8.328C43.396 8.328 43.884 8.172 44.244 7.86C44.604 7.548 44.784 7.136 44.784 6.624C44.784 6.088 44.6 5.68 44.232 5.4C43.864 5.112 43.38 4.968 42.78 4.968ZM47.3143 4.572C47.3143 3.196 47.5383 2.124 47.9863 1.356C48.4343 0.58 49.2183 0.192 50.3383 0.192C51.4503 0.192 52.2303 0.58 52.6783 1.356C53.1263 2.124 53.3503 3.196 53.3503 4.572C53.3503 5.972 53.1263 7.06 52.6783 7.836C52.2303 8.612 51.4503 9 50.3383 9C49.2183 9 48.4343 8.612 47.9863 7.836C47.5383 7.06 47.3143 5.972 47.3143 4.572ZM52.2703 4.572C52.2703 3.876 52.2223 3.288 52.1263 2.808C52.0383 2.32 51.8503 1.928 51.5623 1.632C51.2823 1.336 50.8743 1.188 50.3383 1.188C49.7943 1.188 49.3783 1.336 49.0903 1.632C48.8103 1.928 48.6223 2.32 48.5263 2.808C48.4383 3.288 48.3943 3.876 48.3943 4.572C48.3943 5.292 48.4383 5.896 48.5263 6.384C48.6223 6.872 48.8103 7.264 49.0903 7.56C49.3783 7.856 49.7943 8.004 50.3383 8.004C50.8743 8.004 51.2823 7.856 51.5623 7.56C51.8503 7.264 52.0383 6.872 52.1263 6.384C52.2223 5.896 52.2703 5.292 52.2703 4.572ZM54.8495 4.572C54.8495 3.196 55.0735 2.124 55.5215 1.356C55.9695 0.58 56.7535 0.192 57.8735 0.192C58.9855 0.192 59.7655 0.58 60.2135 1.356C60.6615 2.124 60.8855 3.196 60.8855 4.572C60.8855 5.972 60.6615 7.06 60.2135 7.836C59.7655 8.612 58.9855 9 57.8735 9C56.7535 9 55.9695 8.612 55.5215 7.836C55.0735 7.06 54.8495 5.972 54.8495 4.572ZM59.8055 4.572C59.8055 3.876 59.7575 3.288 59.6615 2.808C59.5735 2.32 59.3855 1.928 59.0975 1.632C58.8175 1.336 58.4095 1.188 57.8735 1.188C57.3295 1.188 56.9135 1.336 56.6255 1.632C56.3455 1.928 56.1575 2.32 56.0615 2.808C55.9735 3.288 55.9295 3.876 55.9295 4.572C55.9295 5.292 55.9735 5.896 56.0615 6.384C56.1575 6.872 56.3455 7.264 56.6255 7.56C56.9135 7.856 57.3295 8.004 57.8735 8.004C58.4095 8.004 58.8175 7.856 59.0975 7.56C59.3855 7.264 59.5735 6.872 59.6615 6.384C59.7575 5.896 59.8055 5.292 59.8055 4.572Z" fill="white"/>
<defs>
<clipPath id="clip0_2_352">
<rect width="32" height="16" fill="white"/>
</clipPath>
</defs>
</svg>
