<svg width="51" height="16" viewBox="0 0 51 16" fill="none" xmlns="http://www.w3.org/2000/svg">
<g clip-path="url(#clip0_2_358)">
<path fill-rule="evenodd" clip-rule="evenodd" d="M5 6.44452C4.03804 6.44452 3.25973 5.70036 3.25973 4.78061C3.25973 3.86295 4.03804 3.11879 5 3.11879C5.95977 3.11879 6.73809 3.86295 6.73809 4.78061C6.73809 5.70036 5.95977 6.44452 5 6.44452ZM5 0C2.23874 0 0 2.14051 0 4.78061C0 6.70791 2.6585 12.471 4.09926 15.4497C4.45343 16.1834 5.54438 16.1834 5.90074 15.4497C7.33931 12.471 10 6.70791 10 4.78061C10 2.14051 7.76126 0 5 0Z" fill="white"/>
</g>
<path d="M21.875 9H20.874L16.848 2.895V9H15.847V1.322H16.848L20.874 7.416V1.322H21.875V9ZM29.0814 5.755C29.0814 5.94567 29.0704 6.14733 29.0484 6.36H24.2304C24.267 6.954 24.4687 7.41967 24.8354 7.757C25.2094 8.087 25.6604 8.252 26.1884 8.252C26.621 8.252 26.9804 8.153 27.2664 7.955C27.5597 7.74967 27.765 7.47833 27.8824 7.141H28.9604C28.799 7.72033 28.4764 8.19333 27.9924 8.56C27.5084 8.91933 26.907 9.099 26.1884 9.099C25.6164 9.099 25.103 8.97067 24.6484 8.714C24.201 8.45733 23.849 8.09433 23.5924 7.625C23.3357 7.14833 23.2074 6.59833 23.2074 5.975C23.2074 5.35167 23.332 4.80533 23.5814 4.336C23.8307 3.86667 24.179 3.50733 24.6264 3.258C25.081 3.00133 25.6017 2.873 26.1884 2.873C26.7604 2.873 27.2664 2.99767 27.7064 3.247C28.1464 3.49633 28.4837 3.841 28.7184 4.281C28.9604 4.71367 29.0814 5.205 29.0814 5.755ZM28.0474 5.546C28.0474 5.16467 27.963 4.83833 27.7944 4.567C27.6257 4.28833 27.3947 4.07933 27.1014 3.94C26.8154 3.79333 26.4964 3.72 26.1444 3.72C25.6384 3.72 25.2057 3.88133 24.8464 4.204C24.4944 4.52667 24.2927 4.974 24.2414 5.546H28.0474ZM31.4037 4.083C31.6017 3.73833 31.895 3.45233 32.2837 3.225C32.6797 2.99033 33.138 2.873 33.6587 2.873C34.194 2.873 34.678 3.00133 35.1107 3.258C35.5507 3.51467 35.8953 3.87767 36.1447 4.347C36.394 4.809 36.5187 5.348 36.5187 5.964C36.5187 6.57267 36.394 7.11533 36.1447 7.592C35.8953 8.06867 35.5507 8.439 35.1107 8.703C34.678 8.967 34.194 9.099 33.6587 9.099C33.1453 9.099 32.6907 8.98533 32.2947 8.758C31.906 8.52333 31.609 8.23367 31.4037 7.889V11.86H30.4027V2.972H31.4037V4.083ZM35.4957 5.964C35.4957 5.50933 35.404 5.11333 35.2207 4.776C35.0373 4.43867 34.788 4.182 34.4727 4.006C34.1647 3.83 33.8237 3.742 33.4497 3.742C33.083 3.742 32.742 3.83367 32.4267 4.017C32.1187 4.193 31.8693 4.45333 31.6787 4.798C31.4953 5.13533 31.4037 5.52767 31.4037 5.975C31.4037 6.42967 31.4953 6.82933 31.6787 7.174C31.8693 7.51133 32.1187 7.77167 32.4267 7.955C32.742 8.131 33.083 8.219 33.4497 8.219C33.8237 8.219 34.1647 8.131 34.4727 7.955C34.788 7.77167 35.0373 7.51133 35.2207 7.174C35.404 6.82933 35.4957 6.426 35.4957 5.964ZM37.4623 5.964C37.4623 5.348 37.5869 4.809 37.8363 4.347C38.0856 3.87767 38.4266 3.51467 38.8593 3.258C39.2993 3.00133 39.7869 2.873 40.3223 2.873C40.8503 2.873 41.3086 2.98667 41.6973 3.214C42.0859 3.44133 42.3756 3.72733 42.5663 4.072V2.972H43.5783V9H42.5663V7.878C42.3683 8.23 42.0713 8.52333 41.6753 8.758C41.2866 8.98533 40.8319 9.099 40.3113 9.099C39.7759 9.099 39.2919 8.967 38.8593 8.703C38.4266 8.439 38.0856 8.06867 37.8363 7.592C37.5869 7.11533 37.4623 6.57267 37.4623 5.964ZM42.5663 5.975C42.5663 5.52033 42.4746 5.12433 42.2913 4.787C42.1079 4.44967 41.8586 4.193 41.5433 4.017C41.2353 3.83367 40.8943 3.742 40.5203 3.742C40.1463 3.742 39.8053 3.83 39.4973 4.006C39.1893 4.182 38.9436 4.43867 38.7603 4.776C38.5769 5.11333 38.4853 5.50933 38.4853 5.964C38.4853 6.426 38.5769 6.82933 38.7603 7.174C38.9436 7.51133 39.1893 7.77167 39.4973 7.955C39.8053 8.131 40.1463 8.219 40.5203 8.219C40.8943 8.219 41.2353 8.131 41.5433 7.955C41.8586 7.77167 42.1079 7.51133 42.2913 7.174C42.4746 6.82933 42.5663 6.42967 42.5663 5.975ZM46.2709 0.86V9H45.2699V0.86H46.2709Z" fill="white"/>
<defs>
<clipPath id="clip0_2_358">
<rect width="10" height="16" fill="white"/>
</clipPath>
</defs>
</svg>
