<svg width="34" height="17" viewBox="0 0 34 17" fill="none" xmlns="http://www.w3.org/2000/svg">
<g clip-path="url(#clip0_2_340)">
<path fill-rule="evenodd" clip-rule="evenodd" d="M8.37292 1C8.43752 1 8.48989 1.05238 8.48989 1.11691V1.23936C8.48989 1.3039 8.43752 1.35628 8.37292 1.35628H8.23866V1.7507C12.3393 1.87669 15.625 5.24071 15.625 9.37297C15.625 13.5856 12.2114 17 8.00042 17C3.78941 17 0.375 13.5856 0.375 9.37297C0.375 5.24102 3.66099 1.87708 7.76134 1.75078V1.35628H7.62708C7.56248 1.35628 7.51019 1.3039 7.51019 1.23936V1.11691C7.51019 1.05238 7.56248 1 7.62708 1H8.37292ZM8.19106 2.75062V3.41987C8.19106 3.5254 8.10554 3.61093 8.00004 3.61093C7.89453 3.61093 7.80894 3.5254 7.80894 3.41987V2.75062C4.30164 2.85038 1.47812 5.67406 1.37877 9.18221H2.04787C2.15338 9.18221 2.23897 9.26775 2.23897 9.37328C2.23897 9.47888 2.15338 9.56441 2.04787 9.56441H1.37877C1.47858 13.0723 4.30187 15.8962 7.80894 15.996V15.3268C7.80894 15.2212 7.89453 15.1356 8.00004 15.1356C8.10554 15.1356 8.19106 15.2212 8.19106 15.3268V15.996C11.6984 15.8966 14.5214 13.0725 14.6212 9.56441H13.9521C13.8466 9.56441 13.7611 9.47888 13.7611 9.37328C13.7611 9.26775 13.8466 9.18221 13.9521 9.18221H14.6212C14.5219 5.67375 11.6987 2.84999 8.19106 2.75062ZM7.99999 9.01702C8.1967 9.01702 8.35619 9.17655 8.35619 9.3733C8.35619 9.3936 8.3535 9.41314 8.35027 9.43245L10.6161 11.4819C10.6742 11.5345 10.7162 11.6026 10.7371 11.6782L10.7677 11.7894C10.7827 11.8435 10.7363 11.8948 10.681 11.8854L10.5672 11.866C10.4899 11.8529 10.418 11.8179 10.3598 11.7653L8.09358 9.7155C8.06359 9.72381 8.0326 9.72958 7.99999 9.72958C7.80336 9.72958 7.64379 9.57005 7.64379 9.3733C7.64379 9.17655 7.80336 9.01702 7.99999 9.01702Z" fill="white"/>
</g>
<path d="M27.58 3.388C27.404 2.5 26.856 2.056 25.936 2.056C25.224 2.056 24.692 2.332 24.34 2.884C23.988 3.428 23.816 4.328 23.824 5.584C24.008 5.168 24.312 4.844 24.736 4.612C25.168 4.372 25.648 4.252 26.176 4.252C27 4.252 27.656 4.508 28.144 5.02C28.64 5.532 28.888 6.24 28.888 7.144C28.888 7.688 28.78 8.176 28.564 8.608C28.356 9.04 28.036 9.384 27.604 9.64C27.18 9.896 26.664 10.024 26.056 10.024C25.232 10.024 24.588 9.84 24.124 9.472C23.66 9.104 23.336 8.596 23.152 7.948C22.968 7.3 22.876 6.5 22.876 5.548C22.876 2.612 23.9 1.144 25.948 1.144C26.732 1.144 27.348 1.356 27.796 1.78C28.244 2.204 28.508 2.74 28.588 3.388H27.58ZM25.948 5.176C25.604 5.176 25.28 5.248 24.976 5.392C24.672 5.528 24.424 5.74 24.232 6.028C24.048 6.308 23.956 6.652 23.956 7.06C23.956 7.668 24.132 8.164 24.484 8.548C24.836 8.924 25.34 9.112 25.996 9.112C26.556 9.112 27 8.94 27.328 8.596C27.664 8.244 27.832 7.772 27.832 7.18C27.832 6.556 27.672 6.068 27.352 5.716C27.032 5.356 26.564 5.176 25.948 5.176ZM31.0932 0.447999L30.9492 2.836H30.1932L30.0372 0.447999H31.0932ZM33.0033 0.447999L32.8593 2.836H32.1033L31.9473 0.447999H33.0033Z" fill="white"/>
<defs>
<clipPath id="clip0_2_340">
<rect width="16" height="16" fill="white" transform="translate(0 1)"/>
</clipPath>
</defs>
</svg>
